<svg width="1024" height="1024" viewBox="0 0 1024 1024" fill="none" xmlns="http://www.w3.org/2000/svg">
  <defs>
    <linearGradient id="topBar" x1="302" y1="335" x2="612" y2="335" gradientUnits="userSpaceOnUse">
      <stop offset="0" stop-color="#1D7BFF"/>
      <stop offset="1" stop-color="#22D3EE"/>
    </linearGradient>
    <linearGradient id="tStem" x1="412" y1="373" x2="327" y2="610" gradientUnits="userSpaceOnUse">
      <stop offset="0" stop-color="#1F4AE0"/>
      <stop offset="1" stop-color="#0B84FF"/>
    </linearGradient>
    <linearGradient id="arrow" x1="415" y1="605" x2="790" y2="323" gradientUnits="userSpaceOnUse">
      <stop offset="0" stop-color="#0891B2"/>
      <stop offset="0.58" stop-color="#22C55E"/>
      <stop offset="1" stop-color="#A3E635"/>
    </linearGradient>
    <linearGradient id="tail" x1="408" y1="612" x2="561" y2="469" gradientUnits="userSpaceOnUse">
      <stop offset="0" stop-color="#1D4ED8"/>
      <stop offset="1" stop-color="#22D3EE"/>
    </linearGradient>
  </defs>
  <rect x="0" y="0" width="1024" height="1024" fill="#FFFFFF"/>
  <g transform="translate(-70 -8) scale(1.34)">
    <path d="M304 311H610L578 373H304V311Z" fill="url(#topBar)"/>
    <path d="M408 373H492L396 640C387 666 350 682 329 664C312 649 309 623 320 603L408 373Z" fill="url(#tStem)"/>
    <path d="M414 606L545 494L520 633L736 402L664 385L778 316L754 425L694 383L538 559C510 591 473 621 433 640L414 606Z" fill="url(#tail)"/>
    <path d="M520 633L731 400C767 361 813 336 863 327L814 379L889 409L835 521L807 455L592 672C565 699 533 719 498 730C474 737 449 719 443 694C437 671 472 653 520 633Z" fill="url(#arrow)"/>
  </g>
</svg>
